# xmcd CD database file generated by MAGIX-FreeDB-PlayR v2.0beta1
# 
# Track frame offsets:
#      150
#      17287
#      33592
#      50361
#      64321
#      77169
#      96972
#      112929
#      123395
#      139637
#      153402
#      168435
#      183032
#      196504
#      212968
#      228475
#      241835
#      258704
#      277023
#      288465
# 
# Disc length: 3981 seconds
# 
# Revision: 1 
# Processed by: cddbd v1.5.2PL0 Copyright (c) Steve Scherf et al.
# Submitted via: MAGIX-FreeDB-PlayR v2.0beta1
# 
DISCID=150f8b14
DTITLE=R. L. Burnside - Rollin' and Tumblin'
DYEAR=2010
DGENRE=Blues
TTITLE0=R. L. Burnside - Fireman Ring The Bell
TTITLE1=R. L. Burnside - Long Haired Doney (Take 1)
TTITLE2=R. L. Burnside - Walkin' Blues
TTITLE3=R. L. Burnside - Poor Black Mattie (Acoustic) (Take 1)
TTITLE4=R. L. Burnside - See My Jumper On The Line
TTITLE5=R. L. Burnside - Goin' Down South
TTITLE6=R. L. Burnside - Poor Boy
TTITLE7=R. L. Burnside - Skinny Woman
TTITLE8=R. L. Burnside - Bad Luck
TTITLE9=R. L. Burnside - Poor Black Mattie (Electric)
TTITLE10=R. L. Burnside - 44 Pistols
TTITLE11=R. L. Burnside - See My Jumper On The Line
TTITLE12=R. L. Burnside - Rollin' and Tumblin'
TTITLE13=R. L. Burnside - Long Haired Doney (Take 2)
TTITLE14=R. L. Burnside - When My First Wife Left Me (Take 1)
TTITLE15=R. L. Burnside - Poor Black Mattie (Take 3)
TTITLE16=R. L. Burnside - I Be's Troubled
TTITLE17=R. L. Burnside - When My First Wife Left Me (Take 2)
TTITLE18=R. L. Burnside - Boogie Chillen
TTITLE19=R. L. Burnside - Interview
EXTD=
EXTT0=
EXTT1=
EXTT2=
EXTT3=
EXTT4=
EXTT5=
EXTT6=
EXTT7=
EXTT8=
EXTT9=
EXTT10=
EXTT11=
EXTT12=
EXTT13=
EXTT14=
EXTT15=
EXTT16=
EXTT17=
EXTT18=
EXTT19=
PLAYORDER=
